<?xml version="1.0" encoding="UTF-8"?>
<svg xmlns="http://www.w3.org/2000/svg" xmlns:xlink="http://www.w3.org/1999/xlink" stroke-dasharray="none" shape-rendering="auto" font-family="'Dialog'" width="543" text-rendering="auto" fill-opacity="1" contentScriptType="text/ecmascript" color-interpolation="auto" color-rendering="auto" preserveAspectRatio="xMidYMid meet" font-size="12" viewBox="0 0 543 370" fill="black" stroke="black" image-rendering="auto" stroke-miterlimit="10" zoomAndPan="magnify" version="1.0" stroke-linecap="square" stroke-linejoin="miter" contentStyleType="text/css" font-style="normal" height="370" stroke-width="1" stroke-dashoffset="0" font-weight="normal" stroke-opacity="1">
  <!--Generated by the Batik Graphics2D SVG Generator-->
  <defs id="genericDefs" />
  <g>
    <defs id="defs1">
      <clipPath clipPathUnits="userSpaceOnUse" id="clipPath1">
        <path d="M9 9 L81 9 L81 41 L9 41 L9 9 Z" />
      </clipPath>
      <clipPath clipPathUnits="userSpaceOnUse" id="clipPath2">
        <path d="M9 9 L85 9 L85 41 L9 41 L9 9 Z" />
      </clipPath>
      <clipPath clipPathUnits="userSpaceOnUse" id="clipPath3">
        <path d="M39 39 L51 39 L51 361 L39 361 L39 39 Z" />
      </clipPath>
      <clipPath clipPathUnits="userSpaceOnUse" id="clipPath4">
        <path d="M364 9 L534 9 L534 61 L364 61 L364 9 Z" />
      </clipPath>
      <clipPath clipPathUnits="userSpaceOnUse" id="clipPath5">
        <path d="M364 9 L536 9 L536 61 L364 61 L364 9 Z" />
      </clipPath>
      <clipPath clipPathUnits="userSpaceOnUse" id="clipPath6">
        <path d="M364 9 L537 9 L537 61 L364 61 L364 9 Z" />
      </clipPath>
      <clipPath clipPathUnits="userSpaceOnUse" id="clipPath7">
        <path d="M443 59 L455 59 L455 361 L443 361 L443 59 Z" />
      </clipPath>
      <clipPath clipPathUnits="userSpaceOnUse" id="clipPath8">
        <path d="M438 89 L460 89 L460 131 L438 131 L438 89 Z" />
      </clipPath>
      <clipPath clipPathUnits="userSpaceOnUse" id="clipPath9">
        <path d="M459 89 L506 89 L506 108 L459 108 L459 89 Z" />
      </clipPath>
      <clipPath clipPathUnits="userSpaceOnUse" id="clipPath10">
        <path d="M438 209 L460 209 L460 251 L438 251 L438 209 Z" />
      </clipPath>
      <clipPath clipPathUnits="userSpaceOnUse" id="clipPath11">
        <path d="M459 209 L506 209 L506 228 L459 228 L459 209 Z" />
      </clipPath>
      <clipPath clipPathUnits="userSpaceOnUse" id="clipPath12">
        <path d="M438 149 L460 149 L460 191 L438 191 L438 149 Z" />
      </clipPath>
      <clipPath clipPathUnits="userSpaceOnUse" id="clipPath13">
        <path d="M459 149 L495 149 L495 168 L459 168 L459 149 Z" />
      </clipPath>
      <clipPath clipPathUnits="userSpaceOnUse" id="clipPath14">
        <path d="M438 269 L460 269 L460 311 L438 311 L438 269 Z" />
      </clipPath>
      <clipPath clipPathUnits="userSpaceOnUse" id="clipPath15">
        <path d="M459 269 L495 269 L495 288 L459 288 L459 269 Z" />
      </clipPath>
      <clipPath clipPathUnits="userSpaceOnUse" id="clipPath16">
        <path d="M-1 -1 L544 -1 L544 371 L-1 371 L-1 -1 Z" />
      </clipPath>
      <clipPath clipPathUnits="userSpaceOnUse" id="clipPath17">
        <path d="M117 71 L371 71 L371 90 L117 90 L117 71 Z" />
      </clipPath>
      <clipPath clipPathUnits="userSpaceOnUse" id="clipPath18">
        <path d="M43 85 L55 85 L55 96 L43 96 L43 85 Z" />
      </clipPath>
      <clipPath clipPathUnits="userSpaceOnUse" id="clipPath19">
        <path d="M205 191 L283 191 L283 210 L205 210 L205 191 Z" />
      </clipPath>
      <clipPath clipPathUnits="userSpaceOnUse" id="clipPath20">
        <path d="M43 205 L55 205 L55 216 L43 216 L43 205 Z" />
      </clipPath>
      <clipPath clipPathUnits="userSpaceOnUse" id="clipPath21">
        <path d="M139 131 L348 131 L348 150 L139 150 L139 131 Z" />
      </clipPath>
      <clipPath clipPathUnits="userSpaceOnUse" id="clipPath22">
        <path d="M430 145 L442 145 L442 156 L430 156 L430 145 Z" />
      </clipPath>
      <clipPath clipPathUnits="userSpaceOnUse" id="clipPath23">
        <path d="M134 251 L353 251 L353 270 L134 270 L134 251 Z" />
      </clipPath>
      <clipPath clipPathUnits="userSpaceOnUse" id="clipPath24">
        <path d="M430 265 L442 265 L442 276 L430 276 L430 265 Z" />
      </clipPath>
    </defs>
    <g font-size="14" fill="rgb(238,201,142)" font-family="'Lucida Sans'" stroke-linejoin="round" stroke="rgb(238,201,142)" stroke-width="0" stroke-miterlimit="0">
      <rect x="10" y="10" clip-path="url(#clipPath1)" width="70" height="30" stroke="none" />
    </g>
    <g stroke-width="0.1" font-size="14" font-family="'Lucida Sans'" stroke-linecap="butt">
      <rect x="10" y="10" clip-path="url(#clipPath1)" fill="none" width="69" height="29" />
      <text xml:space="preserve" x="20" y="30" clip-path="url(#clipPath2)" stroke="none">System</text>
      <line clip-path="url(#clipPath3)" fill="none" x1="44" x2="44" y1="40" y2="360" stroke-dasharray="10,10" stroke-width="1.1" />
    </g>
    <g stroke-linecap="butt" font-size="14" fill="rgb(255,245,181)" font-family="'Lucida Sans'" stroke-dasharray="10,10" stroke="rgb(255,245,181)" stroke-width="1.1">
      <rect x="365" y="10" clip-path="url(#clipPath4)" width="168" height="50" stroke="none" />
    </g>
    <g stroke-width="0.1" font-size="14" font-family="'Lucida Sans'" stroke-linecap="butt">
      <rect x="365" y="10" clip-path="url(#clipPath4)" fill="none" width="167" height="49" />
      <text xml:space="preserve" x="438" y="32" clip-path="url(#clipPath5)" stroke="none">bill</text>
      <text xml:space="preserve" x="419" y="49" clip-path="url(#clipPath6)" stroke="none">: actUser</text>
      <line clip-path="url(#clipPath7)" fill="none" x1="448" x2="448" y1="60" y2="360" stroke-dasharray="10,10" stroke-width="1.1" />
    </g>
    <g stroke-linecap="butt" font-size="14" fill="rgb(39,76,114)" font-family="'Lucida Sans'" stroke-dasharray="10,10" stroke="rgb(39,76,114)" stroke-width="1.1">
      <rect x="439" y="90" clip-path="url(#clipPath8)" width="20" height="40" stroke="none" />
      <rect x="439" y="90" clip-path="url(#clipPath8)" fill="none" width="19" stroke-dasharray="none" height="39" stroke-width="0.1" />
    </g>
    <g stroke-width="0.1" font-size="14" font-family="'Lucida Sans'" stroke-linecap="butt">
      <text xml:space="preserve" x="460" y="104" clip-path="url(#clipPath9)" stroke="none">out01</text>
      <rect x="439" y="210" clip-path="url(#clipPath10)" fill="rgb(39,76,114)" width="20" height="40" stroke="none" />
      <rect x="439" y="210" clip-path="url(#clipPath10)" fill="none" width="19" height="39" stroke="rgb(39,76,114)" />
      <text xml:space="preserve" x="460" y="224" clip-path="url(#clipPath11)" stroke="none">out02</text>
      <rect x="439" y="150" clip-path="url(#clipPath12)" fill="rgb(194,239,255)" width="20" height="40" stroke="none" />
      <rect x="439" y="150" clip-path="url(#clipPath12)" fill="none" width="19" height="39" stroke="rgb(194,239,255)" />
      <text xml:space="preserve" x="460" y="164" clip-path="url(#clipPath13)" stroke="none">in01</text>
      <rect x="439" y="270" clip-path="url(#clipPath14)" fill="rgb(194,239,255)" width="20" height="40" stroke="none" />
      <rect x="439" y="270" clip-path="url(#clipPath14)" fill="none" width="19" height="39" stroke="rgb(194,239,255)" />
      <text xml:space="preserve" x="460" y="284" clip-path="url(#clipPath15)" stroke="none">in02</text>
      <line clip-path="url(#clipPath16)" fill="none" x1="439" x2="45" y1="90" y2="90" stroke="rgb(136,136,136)" stroke-width="2.1" />
      <text x="118" y="86" clip-path="url(#clipPath17)" stroke="none" stroke-width="2.1" xml:space="preserve">oeLogin("Greenhouse","GreenCODE")</text>
      <line clip-path="url(#clipPath18)" fill="none" x1="52" x2="45" y1="87" y2="90" stroke="rgb(136,136,136)" stroke-width="2.1" />
      <line clip-path="url(#clipPath18)" fill="none" x1="45" x2="52" y1="90" y2="93" stroke="rgb(136,136,136)" stroke-width="2.1" />
      <line clip-path="url(#clipPath16)" fill="none" x1="439" x2="45" y1="210" y2="210" stroke="rgb(136,136,136)" stroke-width="2.1" />
      <text x="206" y="206" clip-path="url(#clipPath19)" stroke="none" stroke-width="2.1" xml:space="preserve">oeLogout()</text>
      <line clip-path="url(#clipPath20)" fill="none" x1="52" x2="45" y1="207" y2="210" stroke="rgb(136,136,136)" stroke-width="2.1" />
      <line clip-path="url(#clipPath20)" fill="none" x1="45" x2="52" y1="210" y2="213" stroke="rgb(136,136,136)" stroke-width="2.1" />
    </g>
    <g stroke-linecap="butt" font-size="14" fill="rgb(136,136,136)" font-family="'Lucida Sans'" stroke-dasharray="5,5" stroke="rgb(136,136,136)" stroke-width="2.1">
      <line clip-path="url(#clipPath16)" fill="none" x1="439" x2="45" y1="150" y2="150" />
      <text x="140" y="146" clip-path="url(#clipPath21)" fill="black" stroke="none" xml:space="preserve">ieMessage(You are logged in.)</text>
      <line clip-path="url(#clipPath22)" fill="none" x1="432" x2="439" y1="153" y2="150" stroke-dasharray="none" />
      <line clip-path="url(#clipPath22)" fill="none" x1="439" x2="432" y1="150" y2="147" stroke-dasharray="none" />
      <line clip-path="url(#clipPath16)" fill="none" x1="439" x2="45" y1="270" y2="270" />
      <text x="135" y="266" clip-path="url(#clipPath23)" fill="black" stroke="none" xml:space="preserve">ieMessage(You are logged out!)</text>
      <line clip-path="url(#clipPath24)" fill="none" x1="432" x2="439" y1="273" y2="270" stroke-dasharray="none" />
      <line clip-path="url(#clipPath24)" fill="none" x1="439" x2="432" y1="270" y2="267" stroke-dasharray="none" />
    </g>
  </g>
</svg>

